<svg viewBox="24 44.68085106382978 592.0000000000002 518.6170212765957" fill="none" xmlns="http://www.w3.org/2000/svg" xmlns:xlink="http://www.w3.org/1999/xlink" xmlns:blush="http://design.blush" overflow="visible" width="592.0000000000002px" height="518.6170212765957px"><g id="Master/Stickers/Note" blush:has-customizable-colors="true" blush:viewBox="28.80000000000001 42.537313432835845 582.4000000000002 514.9253731343285" blush:i="0"><g id="Group 11" blush:i="0.0"><path id="Vector" d="M402.93 70.8423C382.245 68.6472 367.495 63.2215 355.448 53.1986C351.151 50.2478 346.297 48.0835 341.141 46.8202C332.282 44.0453 327.321 43.6306 324.353 45.2459C321.386 46.8611 319.26 51.5004 317.311 61.3577C312.2 87.7269 303.352 113.341 291 137.523L290.248 138.973L288.564 138.641L273.372 135.95C262.653 134.086 252.554 132.304 242.366 130.192C228.148 127.21 213.93 124.104 199.711 120.998C178.273 116.318 156.038 111.472 134.113 107.165C129.756 106.164 125.306 105.553 120.825 105.342C111.523 105.342 108.954 110.312 105.278 125.098C79.1005 230.214 55.9793 323.9 34.4084 410.875C28.473 434.98 29.4473 436.554 54.6503 444.216L57.2634 445.044C60.1868 445.914 63.1102 446.826 66.1221 447.654L424.59 548.091L431.721 550.12C437.656 551.859 443.813 553.64 449.97 555.007C465.871 558.569 469.237 557.078 475.97 543.576C478.362 538.771 480.4 533.677 482.348 528.748L483.943 524.855C523.423 427.774 562.859 330.692 602.251 233.61C604.022 229.262 606.06 224.127 607.699 218.825C610.356 210.542 607.167 204.992 597.954 202.258C592.24 200.56 585.995 199.027 579.484 197.702C555.211 192.691 524.294 187.679 494.396 182.792C465.34 178.029 435.308 173.141 411.611 168.337L407.847 167.509C405.126 166.823 402.359 166.311 399.564 165.977H397.039L397.615 163.657L405.587 132.885C407.093 127.169 408.733 121.536 410.372 115.904C412.896 107.165 415.509 98.1773 417.458 89.1898C419.009 82.066 418.876 77.9656 417.016 75.5634C415.155 73.1612 410.903 71.6707 402.93 70.8423ZM431.632 186.188C444.92 187.803 457.81 189.336 465.561 190.91C494.485 196.916 523.408 202.838 554.148 209.133L589.848 216.506L589.007 218.701C587.501 222.843 586.128 226.446 584.843 229.842C582.407 236.427 580.414 241.977 578.111 247.444C560.216 291.484 542.277 335.497 524.294 379.482L471.541 509.034C463.479 528.831 460.069 535.996 449.394 535.996C440.653 535.206 432.053 533.398 423.792 530.613C306.591 497.976 189.376 465.283 72.146 432.536C67.7166 431.253 63.2877 429.638 58.2383 427.774L50.4426 424.916L48.6264 424.294L49.0692 422.514C58.8138 384.079 68.2927 345.147 77.4172 307.457C92.0783 247.32 107.226 185.07 123.704 123.359L124.191 121.454L126.273 121.826C135.309 123.538 144.168 125.126 152.849 126.589C171.762 129.944 189.569 133.133 207.197 137.274C216.577 139.302 226.07 140.837 235.633 141.872C252.775 144.026 270.492 146.262 287.191 154.297L288.697 155.042L288.343 156.617C287.413 160.758 286.438 164.32 285.552 167.924C283.692 175.337 281.92 182.336 280.724 189.253C278.643 201.678 281.787 206.856 292.861 209.299C320.943 215.387 344.197 219.529 366.078 222.304C380.961 224.167 384.061 220.399 387.605 205.406C389.022 199.484 390.484 193.602 392.034 187.721L393.717 180.887L395.843 181.301C404.436 182.916 418.255 184.573 431.632 186.395V186.188ZM397.88 103.354C396.817 107.496 395.578 111.265 394.337 115.241C393.319 118.472 392.3 121.743 391.414 125.057C385.789 145.227 379.455 168.089 373.696 190.371C372.19 196.045 369.488 206.193 357.972 206.193C356.483 206.179 354.999 206.026 353.543 205.737C340.875 203.417 328.295 200.974 315.184 198.406L296.448 194.803V192.898C300.403 166.751 306.444 140.917 314.52 115.613C319.57 98.1354 324.841 80.0775 328.694 61.7712L329.226 59.2039L339.634 63.5943C344.064 65.3339 347.12 66.6585 350.309 68.1081C353.498 69.5577 357.529 71.4629 361.117 73.2438C368.511 77.1146 376.246 80.3851 384.238 83.0187C396.508 86.2492 400.671 92.5855 397.88 103.188V103.354Z" fill="black" blush:i="0.0.0"/><path id="Vector_2" d="M246.794 270.339L244.94 269.805C219.122 262.907 192.464 255.763 165.984 249.685C160.792 248.831 155.486 248.761 150.271 249.48L144.357 249.85V251.944L147.888 253.176C151.543 254.496 155.27 255.633 159.055 256.583C163.468 257.61 167.882 258.473 172.295 259.253C178.783 260.485 185.535 261.757 191.935 263.605C214.841 270.257 237.703 277.074 260.564 283.89C288.987 292.308 318.425 301.053 347.421 309.389C378.757 318.34 410.843 326.758 441.869 334.888L461.73 340.103C468.791 342.033 474.97 343.675 480.487 335.503L473.955 332.958C468.318 330.627 462.541 328.598 456.654 326.881C391.776 309.225 323.191 290.788 246.794 270.339Z" fill="black" blush:i="0.0.1"/><path id="Vector_3" d="M139.939 320.649C145.702 322.63 151.553 324.527 157.404 326.384C168.088 329.81 179.171 333.317 189.677 337.692C229.954 354.266 272.381 365.878 315.885 372.233C332.864 374.833 349.842 378.712 366.244 382.508C375.819 384.695 385.75 387.006 395.547 388.986C398.484 389.415 401.475 389.415 404.413 388.986H406.097C405.245 386.693 403.896 384.588 402.135 382.799C400.373 381.011 398.237 379.578 395.857 378.588L391.424 377.267C376.407 372.269 360.992 368.378 345.32 365.63C296.956 358.532 240.346 348.338 186.929 326.302C176.105 322.132 164.999 318.63 153.681 315.82L150.711 314.995C143.263 312.973 137.412 311.941 131.959 317.265L133.245 317.966C135.397 319.023 137.635 319.92 139.939 320.649V320.649Z" fill="black" blush:i="0.0.2"/><path id="Vector_4" d="M209.665 396.388C217.131 398.684 224.85 400.195 232.679 400.894C235.753 400.851 238.785 400.218 241.582 399.034L244.654 398.083L244.921 394.487C227.166 391.488 209.757 386.935 192.926 380.887C169.288 373.199 144.893 365.263 118.762 366.213L118.184 369.025L141.02 375.886C163.501 382.665 186.739 389.692 209.665 396.388Z" fill="black" blush:i="0.0.3"/></g></g></svg>